<svg width="0" height="0" class="hidden">
  <symbol fill="#C0C0C0" xmlns="http://www.w3.org/2000/svg" viewBox="0 0 18 20" id="Iconsettings">
    <path fill-rule="evenodd" clip-rule="evenodd" d="M5.625 2.22222C5.00368 2.22222 4.5 2.71968 4.5 3.33333C4.5 3.94698 5.00368 4.44444 5.625 4.44444C6.24632 4.44444 6.75 3.94698 6.75 3.33333C6.75 2.71968 6.24632 2.22222 5.625 2.22222ZM2.44204 2.22222C2.90536 0.927564 4.1555 0 5.625 0C7.0945 0 8.34464 0.927564 8.80796 2.22222H16.875C17.4963 2.22222 18 2.71968 18 3.33333C18 3.94698 17.4963 4.44444 16.875 4.44444H8.80796C8.34464 5.7391 7.0945 6.66667 5.625 6.66667C4.1555 6.66667 2.90536 5.7391 2.44204 4.44444H1.125C0.50368 4.44444 0 3.94698 0 3.33333C0 2.71968 0.50368 2.22222 1.125 2.22222H2.44204ZM12.375 8.88889C11.7537 8.88889 11.25 9.38635 11.25 10C11.25 10.6137 11.7537 11.1111 12.375 11.1111C12.9963 11.1111 13.5 10.6137 13.5 10C13.5 9.38635 12.9963 8.88889 12.375 8.88889ZM9.19204 8.88889C9.65536 7.59423 10.9055 6.66667 12.375 6.66667C13.8445 6.66667 15.0946 7.59423 15.558 8.88889H16.875C17.4963 8.88889 18 9.38635 18 10C18 10.6137 17.4963 11.1111 16.875 11.1111H15.558C15.0946 12.4058 13.8445 13.3333 12.375 13.3333C10.9055 13.3333 9.65536 12.4058 9.19204 11.1111H1.125C0.50368 11.1111 0 10.6137 0 10C0 9.38635 0.50368 8.88889 1.125 8.88889H9.19204ZM5.625 15.5556C5.00368 15.5556 4.5 16.053 4.5 16.6667C4.5 17.2803 5.00368 17.7778 5.625 17.7778C6.24632 17.7778 6.75 17.2803 6.75 16.6667C6.75 16.053 6.24632 15.5556 5.625 15.5556ZM2.44204 15.5556C2.90536 14.2609 4.1555 13.3333 5.625 13.3333C7.0945 13.3333 8.34464 14.2609 8.80796 15.5556H16.875C17.4963 15.5556 18 16.053 18 16.6667C18 17.2803 17.4963 17.7778 16.875 17.7778H8.80796C8.34464 19.0724 7.0945 20 5.625 20C4.1555 20 2.90536 19.0724 2.44204 17.7778H1.125C0.50368 17.7778 0 17.2803 0 16.6667C0 16.053 0.50368 15.5556 1.125 15.5556H2.44204Z" fill="#C0C0C0"></path>
  </symbol>
  <symbol fill="none" xmlns="http://www.w3.org/2000/svg" viewBox="0 0 170 29" id="Логотип">
    <path d="M142.012 23.699C138.671 23.699 135.861 22.6946 133.582 20.6857L136.358 17.3347C138.191 18.7893 140.136 19.5167 142.192 19.5167C143.58 19.5167 144.273 19.1011 144.273 18.2698V18.2178C144.273 17.8195 144.068 17.5035 143.657 17.2696C143.245 17.0359 142.432 16.763 141.215 16.4513C140.119 16.1915 139.219 15.9404 138.516 15.698C137.814 15.4556 137.12 15.1222 136.435 14.6979C135.749 14.2735 135.244 13.7367 134.918 13.0872C134.593 12.4378 134.43 11.6629 134.43 10.7622V10.7103C134.43 8.97851 135.06 7.57575 136.319 6.50189C137.578 5.4282 139.27 4.89136 141.395 4.89136C144.342 4.89136 146.809 5.69671 148.797 7.30724L146.304 10.8663C144.693 9.67128 143.014 9.07369 141.267 9.07369C140.067 9.07369 139.467 9.46332 139.467 10.2427V10.2946C139.467 10.7103 139.682 11.0438 140.11 11.2949C140.538 11.546 141.369 11.8014 142.603 12.0611C144.847 12.5634 146.522 13.2345 147.628 14.0744C148.733 14.9144 149.285 16.131 149.285 17.7243V17.7761C149.285 19.6119 148.626 21.0579 147.306 22.1144C145.987 23.1709 144.222 23.699 142.012 23.699Z" fill="white"></path>
    <path d="M129.713 20.9974C127.854 22.8331 125.545 23.7511 122.787 23.7511C120.028 23.7511 117.728 22.8375 115.886 21.0105C114.044 19.1833 113.123 16.9623 113.123 14.3472V14.2953C113.123 11.6629 114.053 9.42872 115.912 7.59301C117.771 5.7573 120.079 4.83936 122.838 4.83936C125.596 4.83936 127.897 5.75295 129.739 7.58014C131.581 9.40715 132.501 11.6281 132.501 14.2433V14.2953C132.501 16.9277 131.572 19.1617 129.713 20.9974ZM119.523 17.7502C120.396 18.72 121.502 19.205 122.838 19.205C124.174 19.205 125.267 18.7331 126.115 17.7892C126.963 16.8454 127.387 15.6981 127.387 14.3472V14.2953C127.387 12.9444 126.954 11.7884 126.089 10.8273C125.224 9.86603 124.123 9.38557 122.787 9.38557C121.45 9.38557 120.354 9.85733 119.497 10.8012C118.64 11.7451 118.212 12.8924 118.212 14.2433V14.2953C118.212 15.6288 118.649 16.7804 119.523 17.7502Z" fill="white"></path>
    <path d="M95.2324 23.3874V5.20312H103.739C106.361 5.20312 108.314 5.85256 109.599 7.15143C110.662 8.22529 111.193 9.63675 111.193 11.3858V11.4378C111.193 14.122 109.959 15.9926 107.492 17.0488L111.784 23.3874H106.053L102.429 17.8801H100.218V23.3874H95.2324ZM100.218 13.9317H103.534C104.373 13.9317 105.029 13.7368 105.5 13.3471C105.971 12.9575 106.207 12.4336 106.207 11.7754V11.7236C106.207 11.0134 105.967 10.4722 105.487 10.1C105.007 9.72758 104.348 9.54138 103.508 9.54138H100.218V13.9317Z" fill="white"></path>
    <path d="M79.3779 23.3874V5.20312H84.364V18.9712H93.0763L91.3805 23.3874H79.3779Z" fill="white"></path>
    <path d="M57.5322 23.3875L65.1653 5.07336H69.9714L77.6303 23.3875H72.2844C70.6638 19.2592 69.1366 15.1708 67.5298 11.0483C66.4189 13.8625 65.3534 16.6582 64.2725 19.4648H70.2893L62.7495 23.3875H57.5322Z" fill="white"></path>
    <path d="M169.999 23.3875L162.366 5.07336H157.56L149.901 23.3875H155.247C156.868 19.2592 158.395 15.1708 160.002 11.0483C161.113 13.8625 162.178 16.6582 163.259 19.4648H157.242L164.782 23.3875H169.999Z" fill="white"></path>
    <path fill-rule="evenodd" clip-rule="evenodd" d="M11.3029 0L16.9542 3.57388L22.6057 7.14776H11.3029H0L5.65152 3.57388L11.3029 0ZM22.6057 7.14776V14.2953V21.4429L16.9542 25.0168L11.3029 28.5907L5.65152 25.0168L0 21.4429V14.2953V7.14776L5.65116 17.7668L11.3029 28.3858L16.9545 17.7668L22.6057 7.14776Z" fill="white"></path>
    <path fill-rule="evenodd" clip-rule="evenodd" d="M33.9103 28.5907L39.5616 25.0168L45.2131 21.4429H33.9103H22.6074L28.2589 25.0168L33.9103 28.5907ZM45.2131 21.4429V14.2953V7.14776L39.5616 3.57388L33.9103 0L28.2589 3.57388L22.6074 7.14776V14.2953V21.4429L28.2586 10.8239L33.9103 0.204874L39.562 10.8239L45.2131 21.4429Z" fill="white"></path>
  </symbol>
  <symbol fill="none" xmlns="http://www.w3.org/2000/svg" viewBox="0 0 18 20" id="Iconcontact">
    <path fill-rule="evenodd" clip-rule="evenodd" d="M9 2C6.79086 2 5 3.79086 5 6C5 8.20914 6.79086 10 9 10C11.2091 10 13 8.20914 13 6C13 3.79086 11.2091 2 9 2ZM3 6C3 2.68629 5.68629 0 9 0C12.3137 0 15 2.68629 15 6C15 9.31371 12.3137 12 9 12C5.68629 12 3 9.31371 3 6ZM5 16C3.34315 16 2 17.3431 2 19C2 19.5523 1.55228 20 1 20C0.447715 20 0 19.5523 0 19C0 16.2386 2.23858 14 5 14H13C15.7614 14 18 16.2386 18 19C18 19.5523 17.5523 20 17 20C16.4477 20 16 19.5523 16 19C16 17.3431 14.6569 16 13 16H5Z" fill="#75B3F7"></path>
  </symbol>
  <symbol fill="none" xmlns="http://www.w3.org/2000/svg" viewBox="0 0 16 20" id="Iconmap">
    <path fill-rule="evenodd" clip-rule="evenodd" d="M8 2C4.68629 2 2 4.68629 2 8C2 9.02787 2.36394 10.1768 2.9815 11.3678C3.59457 12.5501 4.4236 13.7092 5.27193 14.7393C6.11782 15.7664 6.9665 16.6457 7.60479 17.2688C7.7483 17.4089 7.88086 17.5357 8 17.6481C8.11914 17.5357 8.2517 17.4089 8.39521 17.2688C9.0335 16.6457 9.88218 15.7664 10.7281 14.7393C11.5764 13.7092 12.4054 12.5501 13.0185 11.3678C13.6361 10.1768 14 9.02787 14 8C14 4.68629 11.3137 2 8 2ZM8 19C7.34921 19.7593 7.34903 19.7591 7.34882 19.7589L7.34671 19.7571L7.34166 19.7528L7.32413 19.7376C7.30918 19.7246 7.28778 19.7059 7.26036 19.6818C7.20552 19.6334 7.12656 19.5632 7.02692 19.4727C6.82772 19.2918 6.54544 19.0296 6.20771 18.6999C5.5335 18.0418 4.63218 17.1086 3.72807 16.0107C2.8264 14.9158 1.90543 13.6374 1.206 12.2884C0.511056 10.9482 0 9.47213 0 8C0 3.58172 3.58172 0 8 0C12.4183 0 16 3.58172 16 8C16 9.47213 15.4889 10.9482 14.794 12.2884C14.0946 13.6374 13.1736 14.9158 12.2719 16.0107C11.3678 17.1086 10.4665 18.0418 9.79229 18.6999C9.45456 19.0296 9.17228 19.2918 8.97308 19.4727C8.87344 19.5632 8.79448 19.6334 8.73964 19.6818C8.71222 19.7059 8.69082 19.7246 8.67587 19.7376L8.65834 19.7528L8.65329 19.7571L8.65172 19.7585C8.65152 19.7586 8.65079 19.7593 8 19ZM8 19L7.34882 19.7589C7.72331 20.0799 8.2763 20.0802 8.65079 19.7593L8 19ZM8 6C6.89543 6 6 6.89543 6 8C6 9.10457 6.89543 10 8 10C9.10457 10 10 9.10457 10 8C10 6.89543 9.10457 6 8 6ZM4 8C4 5.79086 5.79086 4 8 4C10.2091 4 12 5.79086 12 8C12 10.2091 10.2091 12 8 12C5.79086 12 4 10.2091 4 8Z" fill="#75B3F7"></path>
  </symbol>
  <symbol fill="none" xmlns="http://www.w3.org/2000/svg" viewBox="0 0 14 8" id="Iconopen">
    <path fill-rule="evenodd" clip-rule="evenodd" d="M0.292893 0.292893C0.683417 -0.0976311 1.31658 -0.0976311 1.70711 0.292893L7 5.58579L12.2929 0.292893C12.6834 -0.0976311 13.3166 -0.0976311 13.7071 0.292893C14.0976 0.683418 14.0976 1.31658 13.7071 1.70711L7.70711 7.70711C7.31658 8.09763 6.68342 8.09763 6.29289 7.70711L0.292893 1.70711C-0.0976311 1.31658 -0.0976311 0.683418 0.292893 0.292893Z" fill="#75B3F7"></path>
  </symbol>
  <symbol fill="none" xmlns="http://www.w3.org/2000/svg" viewBox="0 0 21 21" id="Iconphone">
    <path fill-rule="evenodd" clip-rule="evenodd" d="M2.15252 2C1.84722 4.1111 1.54631 9.81259 6.02661 14.2929C10.5069 18.7732 16.2084 18.4723 18.3195 18.167V13.8471L13.8836 13.1078L13.2139 14.4472C13.0445 14.786 12.6983 15 12.3195 15V14C12.3195 15 12.319 15 12.3185 15L12.3175 15L12.3152 15L12.3102 15L12.2978 14.9998C12.2886 14.9997 12.2774 14.9994 12.2643 14.999C12.2381 14.9981 12.2042 14.9966 12.1631 14.9939C12.081 14.9884 11.9701 14.9781 11.8343 14.9587C11.563 14.9199 11.1914 14.8447 10.7533 14.6987C9.87357 14.4054 8.73456 13.8293 7.61239 12.7071C6.49023 11.5849 5.91405 10.4459 5.62082 9.56623C5.47478 9.12811 5.39956 8.75646 5.3608 8.48517C5.34141 8.34944 5.3311 8.23846 5.32562 8.15636C5.32288 8.1153 5.32135 8.0814 5.32051 8.05519C5.32009 8.04208 5.31983 8.03089 5.31969 8.02167L5.31954 8.00933L5.31951 8.00429L5.3195 8.00205L5.3195 8.001C5.3195 8.0005 5.3195 8 6.3195 8H5.3195C5.3195 7.66565 5.4866 7.35342 5.7648 7.16795L8.08968 5.61803L6.64247 2H2.15252ZM7.39315 8.48609L9.19908 7.28213C9.98601 6.75751 10.2979 5.75338 9.94663 4.87525L8.49942 1.25722C8.19569 0.497902 7.46028 0 6.64247 0H2.10028C1.19177 0 0.336588 0.631162 0.187443 1.6169C-0.151866 3.8595 -0.613714 10.481 4.61239 15.7071C9.8385 20.9332 16.46 20.4714 18.7026 20.1321C19.6883 19.9829 20.3195 19.1277 20.3195 18.2192V13.8471C20.3195 12.8694 19.6127 12.0351 18.6483 11.8743L14.2124 11.135C13.3464 10.9907 12.4874 11.4281 12.0948 12.2134L11.7483 12.9064C11.6394 12.8796 11.5178 12.8453 11.3857 12.8013C10.7654 12.5946 9.90444 12.1707 9.02661 11.2929C8.14877 10.4151 7.72495 9.55407 7.51818 8.93377C7.46231 8.76616 7.42209 8.61545 7.39315 8.48609Z" fill="#75B3F7"></path>
  </symbol>
  <symbol fill="none" xmlns="http://www.w3.org/2000/svg" viewBox="0 0 20 20" id="Iconsearch">
    <path fill-rule="evenodd" clip-rule="evenodd" d="M8 2C4.68629 2 2 4.68629 2 8C2 11.3137 4.68629 14 8 14C11.3137 14 14 11.3137 14 8C14 4.68629 11.3137 2 8 2ZM0 8C0 3.58172 3.58172 0 8 0C12.4183 0 16 3.58172 16 8C16 9.84871 15.3729 11.551 14.3199 12.9056L19.7071 18.2929C20.0976 18.6834 20.0976 19.3166 19.7071 19.7071C19.3166 20.0976 18.6834 20.0976 18.2929 19.7071L12.9056 14.3199C11.551 15.3729 9.84871 16 8 16C3.58172 16 0 12.4183 0 8Z" fill="#75B3F7"></path>
  </symbol>
</svg>

<svg class="icon">
  <use xlink:href="#Iconsettings"></use>
</svg><svg class="icon">
  <use xlink:href="#Логотип"></use>
</svg><svg class="icon">
  <use xlink:href="#Iconcontact"></use>
</svg><svg class="icon">
  <use xlink:href="#Iconmap"></use>
</svg><svg class="icon">
  <use xlink:href="#Iconopen"></use>
</svg><svg class="icon">
  <use xlink:href="#Iconphone"></use>
</svg><svg class="icon">
  <use xlink:href="#Iconsearch"></use>
</svg>